<svg width="16" height="16" viewBox="0 0 16 16" fill="none" xmlns="http://www.w3.org/2000/svg">
<path fill-rule="evenodd" clip-rule="evenodd" d="M4.99707 0H10.9971C13.7581 0 15.9971 2.239 15.9971 5V11C15.9971 13.761 13.7581 16 10.9971 16H4.99707C2.23607 16 -0.00292969 13.761 -0.00292969 11V5C-0.00292969 2.239 2.23607 0 4.99707 0ZM10.9971 14.5C12.9271 14.5 14.4971 12.93 14.4971 11V5C14.4971 3.07 12.9271 1.5 10.9971 1.5H4.99707C3.06707 1.5 1.49707 3.07 1.49707 5V11C1.49707 12.93 3.06707 14.5 4.99707 14.5H10.9971Z" fill="#414852"/>
<path fill-rule="evenodd" clip-rule="evenodd" d="M3.99707 8C3.99707 5.791 5.78807 4 7.99707 4C10.2061 4 11.9971 5.791 11.9971 8C11.9971 10.209 10.2061 12 7.99707 12C5.78807 12 3.99707 10.209 3.99707 8ZM5.49707 8C5.49707 9.378 6.61907 10.5 7.99707 10.5C9.37507 10.5 10.4971 9.378 10.4971 8C10.4971 6.621 9.37507 5.5 7.99707 5.5C6.61907 5.5 5.49707 6.621 5.49707 8Z" fill="#414852"/>
<circle cx="12.2967" cy="3.70097" r="0.533" fill="#414852"/>
</svg>
