<svg width="20" height="16" viewBox="0 0 20 16" fill="none" xmlns="http://www.w3.org/2000/svg">
<path d="M19.5526 1.881C18.8254 2.2 18.0505 2.41144 17.2426 2.51411C18.0737 2.01789 18.7081 1.23811 19.0063 0.298222C18.2314 0.760222 17.3758 1.08656 16.4641 1.26867C15.7283 0.485222 14.6796 0 13.5356 0C11.3161 0 9.52918 1.80156 9.52918 4.01011C9.52918 4.32789 9.55607 4.63344 9.62207 4.92433C6.28907 4.76178 3.33985 3.16433 1.35863 0.730889C1.01274 1.331 0.809848 2.01789 0.809848 2.75733C0.809848 4.14578 1.52485 5.37656 2.59063 6.08911C1.94651 6.07689 1.31463 5.88989 0.779293 5.59533C0.779293 5.60756 0.779293 5.62344 0.779293 5.63933C0.779293 7.58756 2.16896 9.20578 3.99129 9.57856C3.66496 9.66778 3.30929 9.71056 2.94018 9.71056C2.68351 9.71056 2.4244 9.69589 2.18118 9.64211C2.70063 11.2298 4.17463 12.397 5.92729 12.4349C4.56329 13.5019 2.8314 14.1448 0.956515 14.1448C0.627737 14.1448 0.312404 14.1301 -0.00292969 14.0898C1.77296 15.235 3.87763 15.8889 6.14729 15.8889C13.5246 15.8889 17.558 9.77778 17.558 4.48067C17.558 4.30344 17.5518 4.13233 17.5433 3.96244C18.339 3.39778 19.0075 2.69256 19.5526 1.881Z" fill="#414852"/>
</svg>
